<?xml version="1.0" encoding="utf-8"?>
<!-- Generator: Adobe Illustrator 26.5.0, SVG Export Plug-In . SVG Version: 6.00 Build 0)  -->
<svg version="1.1" id="Layer_1" xmlns="http://www.w3.org/2000/svg" xmlns:xlink="http://www.w3.org/1999/xlink" x="0px" y="0px"
	 viewBox="0 0 512 512" style="enable-background:new 0 0 512 512;" xml:space="preserve">
<g>
	<path d="M341.92,410.42c4.99,4.55,9.82,8.4,13.84,12.96c1.23,1.39,1.25,5.42,0.11,7.05c-8.3,11.89-19.29,19.86-34.21,21.28
		c-2.48,0.24-4.99,0.29-7.49,0.29c-67.51,0.01-135.02,0.06-202.53-0.01c-21.43-0.02-38.18-10.89-44.38-29.22
		c-1.99-5.88-3.19-12.34-3.2-18.53c-0.2-93.06-0.16-186.11-0.12-279.17c0.01-26.6,19.04-45.92,45.75-46.59
		c5.83-0.15,11.67-0.03,17.5-0.03c62.84,0,125.69-0.02,188.53,0.01c24,0.01,41.69,14.56,46.29,37.99c0.41,2.1,0.5,4.3,0.5,6.45
		c0.03,45.78,0.02,91.56,0.02,137.34c0,0.83-0.07,1.65-0.16,3.62c-5.31-5.03-9.83-9.75-14.82-13.89c-4.64-3.85-5.98-8.27-5.93-14.27
		c0.27-36.12,0.11-72.25,0.04-108.37c-0.04-18.34-9.84-28.14-28.09-28.14c-67.01-0.01-134.02,0-201.03-0.01
		c-9.13,0-16.97,2.63-22.72,10.24c-4.29,5.66-5.11,12.18-5.1,18.87c0.1,79.23,0.27,158.46,0.42,237.69
		c0.02,12.82-0.05,25.64,0.02,38.45c0.08,16.52,9.94,26.59,26.39,26.61c67.84,0.07,135.69,0.01,203.53,0.05
		c11.96,0.01,20.41-5.05,24.9-16.3C340.44,413.57,341.02,412.4,341.92,410.42z"/>
	<path d="M218.96,195.26c20.89,1.93,41.96,3.54,64.06,9.07c3.22,0.81,6.59,2.6,8.99,4.88c44.1,41.82,88.05,83.78,132.04,125.71
		c6.27,5.97,12.58,11.9,18.86,17.86c4.44,4.21,4.5,5.47,0.37,9.78c-20.61,21.52-41.27,43-61.82,64.58c-2.96,3.11-5.16,3.72-8.63,0.4
		C323.25,380.18,273.48,333,224,285.51c-3.87-3.72-7.04-8.99-8.62-14.13c-7.98-26.04-15.34-52.27-22.88-78.45L218.96,195.26z"/>
	<path d="M436.66,477.96c-6.41,0.46-12.08-1.84-16.92-6.44c-8.92-8.49-17.8-17.02-26.83-25.39c-2.73-2.53-2.61-4.44-0.11-7.04
		c21.22-22.08,42.4-44.19,63.47-66.41c3.03-3.2,5.13-3.09,8.18-0.06c8.16,8.08,16.56,15.91,24.91,23.79
		c10.27,9.7,11.87,26.63,2.3,37.55c-11.28,12.88-23.41,25.03-35.45,37.22C451.08,476.38,444.25,478.12,436.66,477.96z"/>
	<path d="M213.34,174.31c-30,0-59.99,0-89.99,0c-1.67,0-3.34,0.03-5-0.05c-9.37-0.46-13.8-5.07-13.6-14.14
		c0.19-8.93,4.91-13.5,14.34-13.51c62.82-0.04,125.65-0.04,188.47,0c12,0.01,18.67,11.84,12.19,22.1c-1.55,2.46-5.06,4.03-8,5.15
		c-2.21,0.85-4.93,0.42-7.43,0.43C274,174.32,243.67,174.31,213.34,174.31z"/>
	<path d="M309.73,383.76c-2.98,0-4.61,0-6.25,0c-60.47,0-120.95,0.02-181.42-0.05c-2.96,0-6.04-0.25-8.84-1.11
		c-6.36-1.97-9.59-8.15-8.4-15.12c1.33-7.74,5.32-11.43,12.62-11.44c54.48-0.02,108.95-0.03,163.43,0.08c2.11,0,4.9,0.66,6.22,2.09
		C294.54,366.23,301.65,374.57,309.73,383.76z"/>
	<path d="M236.98,312.95c-2.93,0-5.04,0-7.16,0c-29.31,0.07-58.61,0.15-87.92,0.21c-8.64,0.02-17.31,0.45-25.91-0.11
		c-8.01-0.52-11.31-5.11-11.08-13.57c0.22-8.07,4.31-12.77,11.95-13.18c5.48-0.29,10.99-0.08,16.48-0.08
		c23.65-0.04,47.29,0.01,70.94-0.16c6.28-0.05,11.12,1.88,15.14,6.93C224.7,299.61,230.59,305.73,236.98,312.95z"/>
	<path d="M198,244.02c-2.92,0-4.71,0-6.51,0c-24.14,0-48.28,0.01-72.41,0c-9.62-0.01-14.41-4.62-14.36-13.79
		c0.05-9.17,4.92-13.92,14.39-13.93c21.64-0.02,43.28,0.09,64.92-0.09c4.39-0.03,6.61,1.26,7.64,5.76
		C193.29,229.04,195.63,235.93,198,244.02z"/>
</g>
</svg>
